<?xml version="1.0" encoding="UTF-8" standalone="no"?>
<!-- Created with Inkscape (http://www.inkscape.org/) -->

<svg
   width="444.7934mm"
   height="86.776733mm"
   viewBox="0 0 444.7934 86.776733"
   version="1.1"
   id="svg5"
   inkscape:version="1.3.2 (1:1.3.2+202311252150+091e20ef0f)"
   sodipodi:docname="op_workspace.svg"
   xml:space="preserve"
   xmlns:inkscape="http://www.inkscape.org/namespaces/inkscape"
   xmlns:sodipodi="http://sodipodi.sourceforge.net/DTD/sodipodi-0.dtd"
   xmlns="http://www.w3.org/2000/svg"
   xmlns:svg="http://www.w3.org/2000/svg"><sodipodi:namedview
     id="namedview7"
     pagecolor="#ffffff"
     bordercolor="#666666"
     borderopacity="1.0"
     inkscape:pageshadow="2"
     inkscape:pageopacity="0.0"
     inkscape:pagecheckerboard="0"
     inkscape:document-units="mm"
     showgrid="false"
     inkscape:zoom="2.9631822"
     inkscape:cx="383.03416"
     inkscape:cy="202.48502"
     inkscape:window-width="2488"
     inkscape:window-height="1376"
     inkscape:window-x="72"
     inkscape:window-y="27"
     inkscape:window-maximized="1"
     inkscape:current-layer="g58-4"
     inkscape:snap-others="true"
     inkscape:snap-global="true"
     inkscape:showpageshadow="2"
     inkscape:deskcolor="#d1d1d1"
     showguides="false" /><defs
     id="defs2" /><g
     inkscape:label="Layer 1"
     inkscape:groupmode="layer"
     id="layer1"
     transform="translate(176.62235,310.29473)"><g
       transform="matrix(0.03307292,0,0,-0.03307292,-176.62236,-223.51799)"
       id="g3384"><g
         id="g158"><path
           id="path3394-0"
           style="fill:#43211e;fill-opacity:1;fill-rule:nonzero;stroke:none;stroke-width:0.0330729"
           d="m 252.12108,-277.06192 c 0.12734,-0.0622 0.4154,-0.12848 1.46745,-0.12848 h 14.58252 l -0.48518,-2.45718 c -0.40349,-1.96188 -1.04643,-3.3346 -1.96817,-4.41173 -1.07653,-1.25388 -2.7305,-1.78154 -4.91629,-1.78154 l -9.86566,-0.004 c -3.44487,0 -5.7699,0.62278 -7.35409,2.21685 -1.58387,1.59406 -2.23474,3.90245 -2.23474,7.36952 v 6.90554 c 0,3.46874 0.65121,5.99049 2.23374,7.58156 1.58287,1.59474 3.90856,2.43155 7.35509,2.43155 h 4.22805 c 1.28752,0 2.01281,0.13614 2.15172,0.20604 0.10782,0.21902 0.56786,0.82748 0.56786,2.46383 v 5.25738 c 0,1.66599 -0.4521,2.06143 -0.55562,2.2829 -0.12667,0.0623 -0.7792,0 -1.83257,0 h -14.83156 l 0.48551,2.70061 c 0.40415,1.96684 1.04808,2.86483 1.96586,3.93361 1.07421,1.25524 2.72918,2.29515 4.91893,2.29515 h 10.11437 c 3.44421,0 5.969,-0.70109 7.55352,-2.29515 1.58354,-1.59411 2.43417,-3.78176 2.43417,-7.24857 v -8.59495 c 0,-3.46475 -0.8503,-5.97416 -2.43516,-7.57089 -1.58519,-1.59342 -4.10964,-2.41724 -7.55253,-2.41724 h -4.55977 c -1.05304,0 -1.34078,-0.11284 -1.46745,-0.17542 -0.10318,-0.2187 -0.19083,-0.84747 -0.19083,-2.51908 v -3.56828 c 0,-1.66497 0.087,-2.24981 0.19083,-2.47216"
           sodipodi:nodetypes="cscccsscsscsscsscscccsscsscsscssc"
           transform="matrix(30.236218,0,0,-30.236218,5340.3921,-6758.3385)" /><path
           id="path3396-0"
           style="fill:#43211e;fill-opacity:1;fill-rule:nonzero;stroke:none;stroke-width:0.0330729"
           d="m 208.35255,-285.84467 c -1.43635,0 -2.56553,0.28575 -3.2551,0.97565 -0.69221,0.69089 -1.12293,1.67578 -1.12293,3.11247 v 51.48368 h 6.90553 c 1.43767,0 2.56784,-0.19872 3.25509,-0.88832 0.69288,-0.69093 1.125,-1.58749 1.125,-3.02514 v -7.12359 c 0.8546,1.04709 2.96364,1.11006 3.93103,1.11001 l 5.1139,-3.2e-4 c 3.44619,-2.1e-4 6.02597,-0.71125 7.60884,-2.29515 1.58287,-1.58155 2.4877,-3.96734 2.4877,-7.4135 v -26.36428 c 0,-3.44455 -0.90488,-5.75937 -2.48874,-7.34323 -1.58386,-1.58385 -4.16326,-2.22467 -7.6078,-2.22446 l -5.1139,3.1e-4 c -0.55629,3e-5 -2.20278,-0.12921 -3.16157,1.04025 -0.21955,0.26886 -0.38562,0.56065 -0.50624,0.90009 -0.18517,0.52111 -0.26322,1.15451 -0.26322,1.98965 v -3.93412 z m 14.7066,8.89403 c 0.0696,0.001 0.11716,0.008 0.14883,0.0238 0.10484,0.22092 0.27957,0.6577 0.27957,2.312 v 23.04821 c 0,1.66022 -0.17539,2.16488 -0.27957,2.3828 -0.12601,0.062 -0.50275,0.0543 -1.55546,0.0543 h -6.39238 v -27.78125 h 6.39238 c 0.78879,0 1.19785,-0.0439 1.40663,-0.0398 z"
           sodipodi:nodetypes="scscscccsscssssscsccsscsscsccss"
           transform="matrix(30.236218,0,0,-30.236218,5340.3921,-6758.3385)" /><path
           id="path3396-1"
           style="fill:#43211e;fill-opacity:1;fill-rule:nonzero;stroke:none;stroke-width:0.0330729"
           d="m 171.12692,-300.65253 c -3.44455,0 -6.02395,0.61859 -7.60781,2.20245 -1.58386,1.58385 -2.48874,3.878 -2.48874,7.32255 v 42.28165 c 0,3.44617 0.90484,5.83196 2.48771,7.4135 1.58287,1.5839 4.16264,2.29547 7.60884,2.29547 h 15.80575 c 3.4462,0 6.02597,-0.71157 7.60884,-2.29547 1.58287,-1.58154 2.4877,-3.96733 2.4877,-7.4135 v -42.28165 c 0,-3.44455 -0.90488,-5.7387 -2.48874,-7.32255 -1.58386,-1.58386 -4.16326,-2.20245 -7.6078,-2.20245 -5.26888,0.11725 -10.5368,0.0534 -15.80575,0 z m 2.65306,8.59895 h 10.49962 c 1.05172,0 1.42879,0.0658 1.55546,0.12764 0.10484,0.22093 0.28009,0.95382 0.28009,2.60811 v 38.81366 c 0,1.66022 -0.17591,2.16539 -0.28009,2.38331 -0.12601,0.062 -0.50275,0.0543 -1.55546,0.0543 h -10.49962 c -1.05271,0 -1.42945,0.008 -1.55546,-0.0543 -0.10418,-0.21792 -0.28008,-0.72309 -0.28008,-2.38331 v -38.81366 c 0,-1.65429 0.17524,-2.38718 0.28008,-2.60811 0.12667,-0.0618 0.50375,-0.12764 1.55546,-0.12764 z"
           sodipodi:nodetypes="cssscsscsssccsscsscsscsscs"
           transform="matrix(30.236218,0,0,-30.236218,5340.3921,-6758.3385)" /><path
           id="path3386-3"
           style="fill:#43211e;fill-opacity:1;fill-rule:nonzero;stroke:none"
           d="m 1333.92,2424.37 c -280.53,0 -544.272,-109.25 -742.643,-307.62 -198.355,-198.36 -307.605,-462.1 -307.605,-742.64 0,-280.52 109.25,-544.27 307.605,-742.63 198.371,-198.359 462.103,-307.601 742.633,-307.601 280.53,0 544.29,109.242 742.66,307.609 198.35,198.352 307.61,462.102 307.61,742.622 0,280.54 -109.26,544.28 -307.62,742.64 -198.36,198.37 -462.1,307.62 -742.64,307.62" /><path
           id="path3388-3"
           style="fill:#c83d21;fill-opacity:1;fill-rule:nonzero;stroke:none"
           d="m 2009.05,699.012 c -180.33,-180.34 -420.11,-279.653 -675.14,-279.653 -255.03,0 -494.789,99.313 -675.121,279.629 -180.328,180.332 -279.648,420.102 -279.648,675.132 0,255.03 99.316,494.79 279.648,675.13 180.332,180.33 420.101,279.65 675.131,279.65 255.03,0 494.8,-99.32 675.13,-279.65 180.33,-180.33 279.65,-420.09 279.65,-675.13 0,-255.03 -99.32,-494.8 -279.65,-675.108 z M 1333.92,2623.8 c -319.83,0 -639.65,-122 -883.662,-366.02 C -0.453125,1807.08 -34.8867,1097.79 346.863,607.531 L 12.9609,273.621 c -17.28121,-17.281 -17.28121,-45.281 0,-62.562 L 211.059,12.9609 c 17.281,-17.28121 45.289,-17.28121 62.554,0 L 613.508,352.84 C 828.75,200.629 1081.31,124.449 1333.91,124.449 c 319.83,0 639.65,122.012 883.67,366.02 488.03,488.019 488.03,1279.291 0,1767.311 -244.02,244.02 -563.83,366.02 -883.66,366.02" /><path
           id="path3390-3"
           style="fill:#eee8be;fill-opacity:1;fill-rule:nonzero;stroke:none"
           d="m 969.746,1843.54 c -23.16,-5.53 -41.476,-13.84 -54.949,-24.91 -17.973,-14.51 -32.067,-35.45 -42.254,-62.74 -10.188,-27.3 -14.145,-71.54 -14.145,-132.71 0,-7.95 1.661,-15.9 1.661,-23.85 v -17.62 c 0,-40.78 -4.598,-69.73 -11.512,-86.84 -6.926,-17.1 -16.168,-29.81 -29.465,-38.1 -13.312,-8.3 -39.023,-12.44 -59.023,-12.44 v -177.81 c 20,-0.7 44.265,-4.84 57.929,-12.45 13.653,-7.59 23.391,-19.87 30.645,-36.8 7.258,-16.94 10.527,-45.45 10.527,-85.54 0,-7.95 -0.355,-15.73 -0.687,-23.33 -0.703,-12.43 -1.133,-24.87 -1.133,-37.32 0,-56.32 5.988,-98.568 18.098,-126.752 12.101,-28.156 32.292,-51.359 60.632,-66.047 28.332,-14.691 76.19,-23.812 143.57,-23.812 h 60.42 v 171.511 c -30,0 -53.98,2.94 -65.21,8.81 -11.22,5.88 -18.03,15.9 -22.87,30.07 -4.85,14.18 -6.65,44.58 -6.65,91.24 0,51.84 -3.66,89.59 -11.61,113.27 -7.96,23.66 -17.39,41.29 -28.62,52.88 -11.233,11.57 -28.358,22.72 -51.506,33.43 22.23,9.67 38.254,19.18 47.996,28.52 12.85,12.44 22.78,28.85 29.72,49.24 9.38,26.61 14.26,63.16 14.6,109.64 0.35,46.48 1.75,74.91 4.18,85.28 4.47,19 12.12,33.16 22.94,42.32 10.83,9.14 27.08,13.79 48.73,13.79 h 18.3 v 170 h -65.08 c -39.4,0 -74.48,-3.67 -105.234,-10.93" /><path
           id="path3392-7"
           style="fill:#eee8be;fill-opacity:1;fill-rule:nonzero;stroke:none"
           d="m 1820.43,1494.87 c -6.91,17.11 -10.37,46.06 -10.37,86.84 v 17.62 c 0,7.95 0.53,15.89 0.53,23.84 0,61.18 -5.11,105.41 -15.3,132.71 -10.19,27.3 -24.28,48.22 -42.25,62.73 -13.47,11.07 -31.8,19.4 -54.94,24.93 -30.77,7.26 -65.84,10.93 -105.24,10.93 h -72.8 v -170 h 26.01 c 21.65,0 37.9,-4.65 48.72,-13.79 10.84,-9.16 18.48,-23.3 22.95,-42.29 2.44,-10.36 3.82,-38.81 4.16,-85.29 0.36,-46.48 5.22,-83.04 14.6,-109.65 6.95,-20.39 16.85,-36.81 29.71,-49.25 9.73,-9.33 25.71,-18.85 47.96,-28.52 -23.16,-10.71 -40.36,-21.86 -51.59,-33.43 -11.23,-11.59 -20.82,-29.22 -28.77,-52.88 -7.96,-23.68 -11.92,-61.43 -11.92,-113.27 0,-46.66 -2.42,-77.06 -7.26,-91.24 -4.84,-14.17 -14.29,-24.19 -25.51,-30.07 -11.23,-5.87 -29.06,-8.81 -69.06,-8.81 V 854.469 h 68.13 c 67.39,0 115.26,9.121 143.6,23.812 28.33,14.688 48.55,37 60.66,65.168 12.08,28.172 18.14,70.861 18.14,127.191 0,12.44 -0.35,25.11 -1.04,37.54 -0.35,7.6 -0.52,15.49 -0.52,23.44 0,40.09 3.63,68.66 10.88,85.6 7.26,16.92 17.42,29.23 31.08,36.82 13.65,7.61 29.07,11.78 59.07,12.48 v 177.81 c -30,0 -46.29,4.14 -59.59,12.44 -13.3,8.29 -23.13,21 -30.04,38.1" /><path
           id="path3394-3"
           style="fill:#43211e;fill-opacity:1;fill-rule:nonzero;stroke:none"
           d="m 3385.83,2100.61 c 3.85,1.87 12.56,3.86 44.37,3.86 h 440.92 l -14.67,73.82 c -12.2,58.94 -31.64,100.18 -59.51,132.54 -32.55,37.67 -82.56,53.64 -148.65,53.64 h -298.3 c -104.16,0 -174.46,-18.71 -222.36,-66.6 -47.89,-47.89 -67.57,-117.24 -67.57,-221.4 v -441.18 c 0,-104.21 19.69,-179.97 67.54,-227.77 47.86,-47.91 118.18,-73.05 222.39,-73.05 h 127.84 c 38.93,0 60.86,-4.09 65.06,-6.19 3.26,-6.58 17.17,-24.86 17.17,-74.02 v -406.1 c 0,-50.051 -13.67,-65.398 -16.8,-72.051 -3.83,-1.871 -23.56,-1.64 -55.41,-1.64 H 3039.4 l 14.68,-76.028 c 12.22,-59.089 31.69,-104.242 59.44,-136.351 32.48,-37.711 82.52,-57.621 148.73,-57.621 h 305.82 c 104.14,0 180.48,21.5 228.39,69.39 47.88,47.891 73.6,120.02 73.6,224.172 V 1304.4 c 0,104.09 -25.71,179.48 -73.63,227.45 -47.93,47.87 -124.26,72.62 -228.36,72.62 H 3430.2 c -31.84,0 -40.54,3.39 -44.37,5.27 -3.12,6.57 -5.77,25.46 -5.77,75.68 v 340.92 c 0,50.02 2.63,67.59 5.77,74.27" /><path
           id="path3396-2"
           style="fill:#43211e;fill-opacity:1;fill-rule:nonzero;stroke:none"
           d="m 4741.21,1884.47 h -325.87 c -104.15,0 -182.14,-19.36 -230.03,-67.25 -47.89,-47.89 -75.25,-117.89 -75.25,-222.04 V 798.031 c 0,-104.199 27.36,-176.34 75.22,-224.16 47.86,-47.891 125.86,-69.402 230.06,-69.402 h 325.87 c 29.25,0 69.73,1.902 95.57,33.562 16.83,20.508 23.28,47.75 23.28,89.539 v 146.899 h -364.51 c -31.83,0 -43.22,-0.231 -47.03,1.633 -3.15,6.589 -8.46,21.859 -8.46,72.058 v 696.89 c 0,50.02 5.29,63.23 8.46,69.91 3.83,1.87 15.23,-0.49 47.03,-0.49 h 364.51 v 151.17 c 0,41.7 -6.43,66.77 -23.26,87.38 -28.99,35.36 -78.77,31.45 -95.59,31.45" /><path
           id="path3398-6"
           style="fill:#43211e;fill-opacity:1;fill-rule:nonzero;stroke:none"
           d="m 5104.02,1854.96 c -20.93,-20.89 -33.96,-50.66 -33.96,-94.1 V 504.469 h 197.56 c 43.47,0 77.64,6 98.42,26.851 20.95,20.891 34.02,48 34.02,91.469 V 1884.47 h -197.62 c -43.43,0 -77.57,-8.65 -98.42,-29.51" /><path
           id="path3400-5"
           style="fill:#43211e;fill-opacity:1;fill-rule:nonzero;stroke:none"
           d="m 5098.91,2337.92 c -20.86,-20.91 -28.85,-47.6 -28.85,-90.99 v -202.46 h 207.58 c 43.47,0 72.63,15.49 93.41,36.33 20.95,20.89 29.01,57.48 29.01,100.95 v 182.72 h -207.64 c -43.4,0 -72.51,-5.58 -93.51,-26.55" /><path
           id="path3402-2"
           style="fill:#c83d21;fill-opacity:1;fill-rule:nonzero;stroke:none"
           d="m 5712.29,2337.98 c -20.9,-20.91 -32.23,-47.62 -32.23,-91.05 V 559.891 c 0,-50.012 -5.84,-76.27 -8.95,-82.891 -3.82,-1.879 -15.72,-12.531 -47.56,-12.531 h -80.21 c -16.86,0 -68.91,5.761 -97.8,-29.598 -16.84,-20.531 -25.48,-43.781 -25.48,-85.539 V 204.469 h 283.72 c 104.09,0 177.57,27.351 225.54,75.281 47.89,47.91 70.74,125.898 70.74,230.012 V 2364.47 h -191 c -43.42,0 -75.86,-5.58 -96.77,-26.49" /><path
           id="path3404-6"
           style="fill:#c83d21;fill-opacity:1;fill-rule:nonzero;stroke:none"
           d="m 6860.06,774.469 h -211.24 c -46.8,0 -65.58,1.902 -70.1,4.203 -1.9,3.797 -8.66,12.949 -8.66,49.437 v 195.531 c 0,50.02 8.15,73.94 11.31,80.61 3.84,1.87 18.08,10.22 49.9,10.22 h 228.79 z m 16.87,1110.001 h -363.49 c -66.15,0 -116.17,-15.19 -148.68,-52.9 -27.81,-32.23 -47.26,-81.87 -59.47,-140.89 l -14.66,-76.21 h 506.09 c 31.81,0 47.12,2.36 50.97,0.48 3.16,-6.77 12.37,-20.08 12.37,-69.9 v -190.21 c -40,10.67 -60.87,9.63 -95.94,9.63 h -213.07 c -104.15,0 -174.98,-20.06 -222.89,-67.95 -47.89,-47.9 -68.1,-118.6 -68.1,-222.74 V 798.031 c 0,-104.199 20.21,-176.34 68.08,-224.16 47.86,-47.891 118.72,-69.402 222.91,-69.402 h 200.54 c 29.23,0 71.09,1.902 97,33.59 6.96,8.472 12.37,17.531 16.34,29.23 5.09,-13.668 12.28,-23.707 21.57,-32.969 20.86,-20.98 52.17,-29.851 95.7,-29.851 h 197.86 V 1595.18 c 0,104.09 -26.28,174.08 -74.2,222.06 -47.93,47.87 -124.84,67.23 -228.93,67.23" /><path
           id="path3406-5"
           style="fill:#c83d21;fill-opacity:1;fill-rule:nonzero;stroke:none"
           d="m 8133.94,1861.98 c -22.36,-17.55 -38.09,-43.41 -48.11,-83.05 l -205.3,-720.07 -4.62,-23.83 -3.49,15.23 -233.83,834.21 h -157.56 c -49.51,0 -76.44,-16.72 -90.34,-34.04 -20.75,-25.86 -26.59,-56.27 -17.39,-97.75 L 7716.81,504.469 h 195.38 c 41.51,0 72.42,7.293 94.47,25.941 20.88,17.649 35.26,39.488 45.27,79.02 l 356.55,1275.04 h -180.45 c -40.69,0 -71.47,-4.71 -94.09,-22.49" /><path
           id="path3408-8"
           style="fill:#c83d21;fill-opacity:1;fill-rule:nonzero;stroke:none"
           d="m 9140.06,774.469 h -210.14 c -46.79,0 -66.14,1.902 -70.65,4.203 -1.91,3.797 -9.21,12.949 -9.21,49.437 v 195.531 c 0,50.02 8.72,73.94 11.85,80.61 3.85,1.87 18.64,10.22 50.44,10.22 h 227.71 z m 241.35,1042.771 c -47.93,47.87 -119.29,67.23 -223.38,67.23 h -363.49 c -66.15,0 -116.18,-15.19 -148.7,-52.9 -27.77,-32.23 -47.23,-81.87 -59.45,-140.89 l -14.67,-76.21 h 506.09 c 31.81,0 46.57,2.36 50.44,0.48 3.17,-6.77 11.81,-20.08 11.81,-69.9 v -190.21 c -20,10.67 -59.77,9.63 -94.85,9.63 h -213.05 c -104.16,0 -180.56,-20.06 -228.43,-67.95 -47.89,-47.9 -73.67,-118.6 -73.67,-222.74 V 798.031 c 0,-104.199 25.78,-176.34 73.63,-224.16 47.83,-47.891 124.26,-69.402 228.47,-69.402 h 200.53 c 29.22,0 71.07,1.902 97.01,33.59 6.94,8.472 12.36,17.531 16.33,29.23 5.1,-13.668 12.26,-23.707 21.57,-32.969 20.87,-20.98 52.17,-29.851 95.7,-29.851 h 186.76 V 1595.18 c 0,104.09 -20.72,174.08 -68.65,222.06" /></g></g></g></svg>
